<svg xmlns="http://www.w3.org/2000/svg" viewBox="0 0 500 500" role="img" aria-labelledby="title desc">
  <title id="title">S. Tech Group crest</title>
  <desc id="desc">Yellow and navy academic shield with lamp, crosses, lotus, S. Tech name and knowledge motto.</desc>
  <defs>
    <filter id="shadow" x="-20%" y="-20%" width="140%" height="145%"><feDropShadow dx="0" dy="8" stdDeviation="8" flood-color="#211b4f" flood-opacity=".2"/></filter>
    <linearGradient id="gold" x1="0" y1="0" x2="1" y2="1"><stop stop-color="#ffdf00"/><stop offset=".52" stop-color="#ffc400"/><stop offset="1" stop-color="#e9a900"/></linearGradient>
    <linearGradient id="flame" x1="0" y1="1" x2="0" y2="0"><stop stop-color="#ffd21c"/><stop offset=".55" stop-color="#ff8b18"/><stop offset="1" stop-color="#d92735"/></linearGradient>
    <path id="leftArc" d="M86 144 Q44 264 162 425"/>
    <path id="rightArc" d="M414 144 Q456 264 338 425"/>
  </defs>
  <g filter="url(#shadow)">
    <path d="M34 112 92 27q158 43 316 0l58 85-50 43q-8 226-166 326Q92 381 84 155Z" fill="url(#gold)"/>
    <path d="M92 76q158 37 316 0l36 50-38 35H94l-38-35Z" fill="#2f258e"/>
    <path d="M94 161h312q-9 205-156 298Q103 366 94 161Z" fill="#30258f"/>
    <path d="M96 190h308M105 244h290M119 330h262" stroke="#fff" stroke-width="9"/>
    <path d="M34 112h54M412 112h54" stroke="#ef7f12" stroke-width="7"/>
  </g>
  <path d="M91 27q159 45 318 0l-10 69Q250 128 101 96Z" fill="#ffd316" stroke="#ef7f12" stroke-width="5"/>
  <text x="250" y="74" text-anchor="middle" font-family="Nirmala UI, Mangal, sans-serif" font-size="21" font-weight="700" fill="#ce272d">तेजस्विनावधीतमस्तु (कठो)</text>
  <g fill="#fff" stroke="#d12c39" stroke-width="4">
    <path d="M119 114h21v-25h24v25h22v24h-22v26h-24v-26h-21Z"/>
    <path d="M314 114h21v-25h24v25h22v24h-22v26h-24v-26h-21Z"/>
  </g>
  <g transform="translate(250 125)">
    <ellipse cx="0" cy="32" rx="27" ry="8" fill="#e98e20" stroke="#8f2028" stroke-width="3"/>
    <path d="M-24 30Q0 50 24 30L16 44Q0 53-16 44Z" fill="#c96b20"/>
    <path d="M0 33C-18 15-5-7 0-20 7-7 20 13 0 33Z" fill="url(#flame)" stroke="#fff2a8" stroke-width="3"/>
    <path d="M0 25C-7 13-1 4 1-3 7 6 8 16 0 25Z" fill="#fff6a5"/>
  </g>
  <text x="250" y="238" text-anchor="middle" font-family="Arial Black, Arial, sans-serif" font-style="italic" font-size="61" font-weight="900" fill="#ffdb19">S. TECH</text>
  <g font-family="Arial, sans-serif" font-weight="800" font-size="22" fill="#101010" letter-spacing="1">
    <text><textPath href="#leftArc" startOffset="7%">MAY KNOWLEDGE</textPath></text>
    <text><textPath href="#rightArc" startOffset="9%">ILLUMINE US</textPath></text>
  </g>
  <g transform="translate(250 368)">
    <path d="M0 31C-17 17-20-4 0-26 20-4 17 17 0 31Z" fill="#e6548d"/>
    <path d="M-5 34C-30 34-48 16-49-11-22-9-6 6-5 34Z" fill="#e6548d"/>
    <path d="M5 34C30 34 48 16 49-11 22-9 6 6 5 34Z" fill="#e6548d"/>
    <path d="M-4 39C-35 45-58 36-73 19-48 16-24 21-4 39Z" fill="#43a449"/>
    <path d="M4 39C35 45 58 36 73 19 48 16 24 21 4 39Z" fill="#43a449"/>
  </g>
</svg>
